<svg version="1.1" id="designs" xmlns="http://www.w3.org/2000/svg" xmlns:xlink="http://www.w3.org/1999/xlink" viewBox="0 0 32 32" xml:space="preserve" fill="#8A0EDD"><g id="SVGRepo_bgCarrier" stroke-width="0"></g><g id="SVGRepo_tracerCarrier" stroke-linecap="round" stroke-linejoin="round"></g><g id="SVGRepo_iconCarrier"> <style type="text/css"> .sketchy_een{fill:#8A0EDD;} </style> <path class="sketchy_een" d="M26.053,25.01c-0.021-0.754-0.041-1.51-0.012-2.264c0.029-0.795,0.037-1.59,0.014-2.385 c-0.021-0.814-0.043-1.628-0.08-2.441c-0.035-0.766-0.025-1.531-0.037-2.297c-0.006-0.373-0.039-0.745-0.043-1.117 c-0.006-0.362-0.012-0.723-0.047-1.085c-0.068-0.734-0.033-1.481-0.033-2.217c0.002-0.851,0.049-1.703,0.06-2.554 c0.001-0.054-0.021-0.102-0.031-0.153c0.085-0.287,0.033-0.605-0.196-0.834c-0.158-0.158-0.394-0.248-0.627-0.248 c-0.215,0-0.427,0.077-0.569,0.248c-0.207,0.245-0.429,0.479-0.639,0.723c-0.253,0.296-0.489,0.606-0.734,0.908 c-0.181,0.224-0.362,0.444-0.555,0.657c-0.092,0.102-0.185,0.207-0.28,0.309c-0.073-0.102-0.141-0.207-0.198-0.319 c-0.06-0.162-0.114-0.324-0.178-0.485c-0.099-0.251-0.203-0.461-0.36-0.676c-0.138-0.187-0.244-0.413-0.427-0.561 c-0.115-0.093-0.226-0.156-0.345-0.203c-0.004-0.114-0.005-0.229-0.008-0.344c-0.013-0.357-0.054-0.705-0.103-1.057 C20.59,6.342,20.556,6.07,20.513,5.8c-0.043-0.257-0.072-0.522-0.162-0.768c-0.207-0.569-0.503-1.128-0.904-1.583 c-0.244-0.277-0.549-0.507-0.857-0.702c-0.216-0.136-0.427-0.277-0.657-0.39C17.331,2.059,16.648,2,15.982,2 c-0.034,0-0.068,0-0.103,0c-0.606,0.004-1.194,0.064-1.789,0.203c-0.639,0.15-1.188,0.514-1.637,0.986 c-0.222,0.236-0.44,0.483-0.602,0.768c-0.187,0.331-0.36,0.661-0.501,1.017c-0.134,0.339-0.224,0.691-0.281,1.052 c-0.064,0.409-0.127,0.818-0.16,1.229c-0.031,0.39-0.04,0.777-0.048,1.166c-0.223,0.235-0.428,0.493-0.626,0.74 c-0.2,0.249-0.413,0.49-0.635,0.72C9.597,9.875,9.592,9.87,9.587,9.864C9.414,9.675,9.225,9.508,9.034,9.338 C8.537,8.896,8.068,8.425,7.596,7.957c-0.318-0.315-0.844-0.317-1.161,0C6.28,8.112,6.201,8.32,6.198,8.53 C6.154,8.629,6.129,8.737,6.129,8.852c0.002,0.444,0.012,0.888,0.014,1.333c0,0.392-0.018,0.781-0.027,1.171 c-0.02,0.77-0.053,1.537-0.062,2.307c-0.018,1.481,0.064,2.959,0.064,4.44c0,0.775,0.01,1.553,0.006,2.33 C6.12,21.18,6.131,21.928,6.11,22.674c-0.021,0.754-0.053,1.506-0.06,2.26c-0.008,0.758-0.014,1.516-0.037,2.273 c-0.015,0.494-0.024,0.985-0.034,1.478c-0.049,0.139-0.063,0.292-0.059,0.443C5.933,29.604,6.305,30,6.788,30 c0.184,0,0.345-0.071,0.485-0.17c0.412,0.026,0.825,0.05,1.238,0.049c0.419-0.002,0.836-0.027,1.255-0.045 c0.805-0.031,1.607-0.014,2.412-0.006c1.635,0.014,3.269-0.018,4.906-0.021c1.303-0.004,2.605-0.002,3.908-0.029 c0.592-0.012,1.185-0.039,1.779-0.043c0.643-0.002,1.284,0.016,1.925,0.027c0.136,0.002,0.26-0.038,0.375-0.096 c0.334,0.051,0.706-0.094,0.867-0.399c0.177-0.335,0.115-0.752,0.115-1.118c0.002-0.296,0.012-0.59,0.02-0.887 C26.094,26.512,26.074,25.76,26.053,25.01z M12.572,7.004c0.076-0.553,0.158-1.102,0.359-1.625c0.113-0.246,0.24-0.489,0.396-0.711 c0.186-0.226,0.39-0.431,0.615-0.619c0.041-0.027,0.083-0.051,0.127-0.072c0.264-0.098,0.533-0.159,0.81-0.203 c0.312-0.033,0.628-0.035,0.94-0.029c0.303,0.005,0.603,0.013,0.902,0.043c0.112,0.021,0.219,0.047,0.326,0.084 c0.14,0.068,0.275,0.145,0.407,0.229c0.158,0.102,0.321,0.195,0.475,0.302c0.131,0.112,0.252,0.235,0.365,0.366 c0.166,0.238,0.31,0.501,0.43,0.767c0.103,0.284,0.148,0.59,0.207,0.885c0.052,0.275,0.098,0.555,0.138,0.832 c0.057,0.498,0.051,1.002,0.079,1.502c-0.271,0.298-0.53,0.608-0.789,0.915c-0.079,0.094-0.158,0.19-0.235,0.287 c-0.142-0.155-0.297-0.298-0.43-0.46c-0.083-0.107-0.167-0.213-0.252-0.32c-0.107-0.15-0.204-0.307-0.302-0.463 c-0.049-0.078-0.088-0.162-0.134-0.24c-0.08-0.138-0.181-0.261-0.281-0.384c-0.185-0.23-0.503-0.376-0.797-0.36 c-0.312,0.016-0.581,0.144-0.789,0.376c-0.137,0.152-0.253,0.323-0.374,0.488c-0.172,0.211-0.356,0.414-0.538,0.617 c-0.15,0.167-0.294,0.342-0.444,0.512c-0.019-0.023-0.037-0.047-0.056-0.071c-0.273-0.353-0.551-0.703-0.846-1.039 c-0.119-0.133-0.22-0.277-0.337-0.409c-0.009-0.01-0.02-0.015-0.029-0.024c-0.003-0.122-0.01-0.244-0.007-0.367 C12.513,7.541,12.539,7.273,12.572,7.004z M22.393,28.102c-0.754,0.025-1.508,0.074-2.264,0.103 c-0.795,0.029-1.588,0.033-2.383,0.041c-0.795,0.006-1.588,0.041-2.383,0.033c-1.374-0.012-2.745-0.006-4.117-0.027 c-0.647-0.012-1.294,0.033-1.939,0.062c-0.569,0.026-1.139-0.015-1.708-0.059c-0.005-0.516-0.01-1.032,0.009-1.548 c0.029-0.762,0.021-1.524,0.035-2.284c0.014-0.75,0.057-1.498,0.058-2.248c0-0.74,0.008-1.483,0.01-2.225 c0.002-0.777-0.002-1.555,0.006-2.332c0.01-0.746,0.014-1.49-0.01-2.237c-0.023-0.734-0.01-1.473-0.02-2.209 c-0.01-0.779,0.02-1.557,0.033-2.336c0.003-0.152,0.005-0.304,0.008-0.457c0.063,0.067,0.127,0.132,0.192,0.197 c0.185,0.183,0.362,0.37,0.532,0.567c0.171,0.199,0.339,0.372,0.563,0.518c0.029,0.02,0.06,0.035,0.092,0.049 c0.072,0.047,0.15,0.078,0.234,0.093c0.195,0.041,0.294,0.025,0.487-0.004c0.205-0.031,0.399-0.205,0.546-0.341 c0.232-0.218,0.434-0.478,0.649-0.713c0.246-0.272,0.461-0.578,0.698-0.861c0.12,0.154,0.242,0.308,0.362,0.461 c0.219,0.301,0.418,0.617,0.636,0.918c0.133,0.181,0.283,0.378,0.493,0.472c0.142,0.083,0.294,0.125,0.458,0.125 c0.094,0.014,0.187,0.004,0.279-0.027c0.234-0.053,0.399-0.195,0.577-0.343c0.215-0.178,0.389-0.423,0.557-0.647 c0.252-0.311,0.539-0.592,0.789-0.904c0.072,0.108,0.146,0.213,0.224,0.318c-0.006-0.008-0.012-0.016-0.018-0.023 c0.016,0.022,0.032,0.043,0.048,0.064c-0.003-0.004-0.006-0.009-0.01-0.013c0.032,0.042,0.064,0.084,0.098,0.126 c-0.03-0.038-0.059-0.075-0.088-0.113c0.147,0.199,0.28,0.406,0.446,0.592c0.129,0.147,0.256,0.295,0.379,0.446 c0.068,0.099,0.123,0.204,0.194,0.3c0.121,0.166,0.255,0.353,0.452,0.437c0.142,0.084,0.296,0.125,0.462,0.125 c0.092,0.01,0.181,0,0.271-0.029c0.105-0.025,0.21-0.07,0.3-0.13c0.321-0.215,0.499-0.541,0.715-0.846 c0.227-0.288,0.459-0.572,0.694-0.854c0.058-0.071,0.118-0.139,0.179-0.207c0.092,0.292,0.175,0.585,0.329,0.854 c0.076,0.135,0.173,0.257,0.265,0.382c0.127,0.171,0.255,0.331,0.407,0.477c0.045,0.043,0.088,0.09,0.136,0.129 c0.15,0.117,0.292,0.241,0.485,0.286c0.212,0.047,0.411,0.057,0.622-0.012c0.323-0.103,0.588-0.325,0.81-0.575 c0.33-0.368,0.645-0.746,0.951-1.131c0,0.243,0.002,0.487-0.004,0.73c-0.01,0.382-0.004,0.766-0.006,1.147 c-0.002,0.364,0,0.727,0.025,1.091c0.053,0.743,0.08,1.489,0.111,2.233c0.031,0.752,0.016,1.504,0.047,2.256 c0.033,0.82,0.056,1.641,0.072,2.461c0.016,0.803-0.004,1.604-0.018,2.406c-0.012,0.752-0.021,1.502-0.025,2.252 c-0.002,0.74,0.012,1.483-0.029,2.223c-0.012,0.238-0.023,0.477-0.029,0.716C23.713,28.066,23.052,28.079,22.393,28.102z M23.415,15.17c-0.043,0.579-0.084,1.157-0.099,1.74c-0.019,0.707-0.051,1.415-0.057,2.122c-0.006,0.723-0.01,1.446-0.012,2.168 c-0.002,0.715-0.006,1.428-0.006,2.143c0,0.368-0.004,0.736-0.008,1.104c0,0.265-0.004,0.534,0.014,0.797 c0.106,0.403-0.163,0.832-0.557,0.941c-0.205,0.056-0.427,0.027-0.608-0.078c-0.193-0.113-0.281-0.273-0.362-0.472 c-0.057-0.138-0.053-0.317-0.053-0.469c0-0.115,0.004-0.23,0.006-0.345c0.004-0.249-0.002-0.499-0.002-0.748 c0.002-1.438-0.008-2.877-0.018-4.315c-0.01-1.529-0.025-3.061,0.066-4.588c0.027-0.462,0.364-0.848,0.847-0.848 C23.004,14.322,23.448,14.708,23.415,15.17z"></path> </g></svg>